<svg width="17" height="21" viewBox="0 0 17 21" fill="none" xmlns="http://www.w3.org/2000/svg">
<path d="M8.87135 3.24744C8.25835 3.24744 7.84968 3.70753 7.84968 4.38672V12.3398L7.91098 13.9245L6.63048 12.3325L5.07754 10.6674C4.89364 10.4702 4.65525 10.3241 4.34875 10.3241C3.79705 10.3241 3.37476 10.755 3.37476 11.3831C3.37476 11.6679 3.48373 11.9381 3.69488 12.1718L8.11531 16.9188C8.30603 17.1233 8.59209 17.2474 8.87135 17.2474C9.15061 17.2474 9.43668 17.1233 9.62739 16.9188L14.0546 12.1718C14.2658 11.9381 14.3748 11.6679 14.3748 11.3831C14.3748 10.755 13.9525 10.3241 13.4008 10.3241C13.0943 10.3241 12.8559 10.4702 12.6652 10.6674L11.1122 12.3325L9.83172 13.9245L9.89983 12.3398V4.38672C9.89983 3.70753 9.48435 3.24744 8.87135 3.24744Z" fill="#8E8E93"/>
</svg>
